<svg xmlns="http://www.w3.org/2000/svg" xmlns:xlink="http://www.w3.org/1999/xlink" viewBox="0 0 284.098 60.341">
    <defs>
        <linearGradient id="linear-gradient" x1="3.299" y1="0.017" x2="-1.353" y2="0.781"
            gradientUnits="objectBoundingBox">
            <stop offset="0" stop-color="#00d2e7" />
            <stop offset="1" stop-color="#c3f" />
        </linearGradient>
        <linearGradient id="linear-gradient-2" x1="4.114" y1="0.272" x2="-8.259" y2="1.036"
            xlink:href="#linear-gradient" />
        <linearGradient id="linear-gradient-3" x1="2.025" y1="0.374" x2="-6.17" y2="1.122"
            xlink:href="#linear-gradient" />
        <linearGradient id="linear-gradient-4" x1="3.524" y1="0.199" x2="-3.647" y2="0.913"
            xlink:href="#linear-gradient" />
        <linearGradient id="linear-gradient-5" x1="8.161" y1="-0.187" x2="-0.088" y2="0.567"
            xlink:href="#linear-gradient" />
        <linearGradient id="linear-gradient-6" x1="6.508" y1="0.086" x2="-1.14" y2="0.625"
            xlink:href="#linear-gradient" />
    </defs>
    <g id="Group_243" data-name="Group 243" transform="translate(-737.24 -1730.832)">
        <g id="Asset_1" data-name="Asset 1" transform="translate(737.24 1730.832)">
            <path id="Path_385" data-name="Path 385" d="M909.627,2.91,904.84,36.854,931,14.7l-14.421.879Z"
                transform="translate(-717.17 -2.306)" fill="#001c5b" />
            <path id="Path_386" data-name="Path 386"
                d="M494.117,126.389q-6.461,0-7.836-5.169l-6.044-18.758c-.139-.471-.292-.709-.458-.709s-.292.251-.458.751L473.4,120.928q-1.659,5.461-7.585,5.461-6.463,0-8.253-5.169L444.69,83.914h12.171l8.128,28.176q.334,1.087.666,1.085.378,0,.709-1.085L473.7,87.869q1.207-3.957,5.127-3.959h1.917q3.837,0,5,4l7.467,24.175c.245.728.49,1.087.7,1.087s.444-.361.666-1.085l8.01-28.174h12.171l-12.629,37.014A7.873,7.873,0,0,1,494.117,126.389Z"
                transform="translate(-352.458 -66.506)" fill="url(#linear-gradient)" />
            <path id="Path_387" data-name="Path 387"
                d="M1053.1,126.4h-11.3V93.141q0-9.209,12.129-9.211a127.426,127.426,0,0,1,14.214.958v8.421H1055.3q-2.209,0-2.209,2.126Z"
                transform="translate(-825.724 -66.522)" fill="url(#linear-gradient-2)" />
            <path id="Path_388" data-name="Path 388"
                d="M1194.874,125.27q-7.375,0-12.129-3.545a11.439,11.439,0,0,1-4.745-9.715,10.765,10.765,0,0,1,5.648-9.9q5.648-3.312,15.985-3.356h6.844V97.511q0-6.21-9.379-6.21-5.251,0-14.964.583V83.5a78.846,78.846,0,0,1,15.006-1.585q10.339,0,15.485,4.148t5.148,11.9v26.845h-11.3v-3.468Q1203.042,125.268,1194.874,125.27Zm.917-9.42q5.293,0,7.983-1.626a4.978,4.978,0,0,0,2.7-4.418v-3.418h-7.629q-5.5,0-7.523,1.334a4.037,4.037,0,0,0-2.022,3.5,4.107,4.107,0,0,0,1.647,3.273A7.465,7.465,0,0,0,1195.791,115.85Z"
                transform="translate(-933.674 -64.929)" fill="url(#linear-gradient-3)" />
            <path id="Path_389" data-name="Path 389"
                d="M831.781,80.819l-8.846,7.494a11.331,11.331,0,0,1,.4,1.294,11.478,11.478,0,1,1-13.861-8.45c.11-.027.22-.048.33-.071L811.422,69.6a22.728,22.728,0,1,0,20.357,11.219Z"
                transform="translate(-625.708 -55.164)" fill="url(#linear-gradient-4)" />
            <path id="Path_390" data-name="Path 390"
                d="M16.775,125.556q-7.33,0-12.052-3.526A11.386,11.386,0,0,1,0,112.386a10.7,10.7,0,0,1,5.612-9.837q5.612-3.292,15.885-3.335H28.29V97.969q0-6.172-9.319-6.172-5.22,0-14.871.581V84.054A78.342,78.342,0,0,1,19.013,82.48q10.271,0,15.388,4.121t5.115,11.822v26.683H28.29v-3.443Q24.889,125.558,16.775,125.556Zm.911-9.369q5.262,0,7.933-1.616a4.933,4.933,0,0,0,2.671-4.391v-3.387H20.71q-5.465,0-7.467,1.325a4.034,4.034,0,0,0-2.01,3.478,4.078,4.078,0,0,0,1.636,3.252A7.4,7.4,0,0,0,17.686,116.188Z"
                transform="translate(0 -65.373)" fill="url(#linear-gradient-5)" />
            <path id="Path_391" data-name="Path 391"
                d="M236.94,60.1q-9.487,0-15.388-5.343t-5.9-15.987q0-10.563,5.469-16.134t14.62-5.571q8.605,0,11.3,3.6V0h11.225V38.771q0,10.642-5.882,15.987T236.94,60.1Zm.041-9.36q5.393,0,7.726-2.879t2.333-9.049q0-7.373-2.319-9.9t-7.74-2.528q-5.426,0-7.765,3.111t-2.34,9.321q0,6.17,2.34,9.049t7.765,2.875Z"
                transform="translate(-170.923)" fill="url(#linear-gradient-6)" />
        </g>
    </g>
</svg>